<?xml version="1.0" encoding="UTF-8" standalone="no"?>
<!-- Created with Inkscape (http://www.inkscape.org/) -->

<svg
   xmlns:dc="http://purl.org/dc/elements/1.1/"
   xmlns:cc="http://creativecommons.org/ns#"
   xmlns:rdf="http://www.w3.org/1999/02/22-rdf-syntax-ns#"
   xmlns:svg="http://www.w3.org/2000/svg"
   xmlns="http://www.w3.org/2000/svg"
   xmlns:sodipodi="http://sodipodi.sourceforge.net/DTD/sodipodi-0.dtd"
   xmlns:inkscape="http://www.inkscape.org/namespaces/inkscape"
   width="24"
   height="24"
   viewBox="0 0 24.000001 24"
   id="svg2"
   version="1.1"
   inkscape:version="0.91 r13725"
   sodipodi:docname="bottle_white_24px.svg">
  <defs
     id="defs4" />
  <sodipodi:namedview
     id="base"
     pagecolor="#ffffff"
     bordercolor="#666666"
     borderopacity="1.0"
     inkscape:pageopacity="0.0"
     inkscape:pageshadow="2"
     inkscape:zoom="7.9195959"
     inkscape:cx="5.7037054"
     inkscape:cy="7.7620479"
     inkscape:document-units="px"
     inkscape:current-layer="layer1"
     showgrid="true"
     units="px"
     showguides="true"
     inkscape:guide-bbox="true"
     inkscape:window-width="1366"
     inkscape:window-height="706"
     inkscape:window-x="-8"
     inkscape:window-y="-8"
     inkscape:window-maximized="1">
    <inkscape:grid
       type="xygrid"
       id="grid4136" />
    <sodipodi:guide
       position="12.000001,17"
       orientation="0,1"
       id="guide4138" />
    <sodipodi:guide
       position="1.0000001,13"
       orientation="1,0"
       id="guide4140" />
    <sodipodi:guide
       position="7.0000004,1"
       orientation="0,1"
       id="guide4142" />
    <sodipodi:guide
       position="17.000001,0"
       orientation="1,0"
       id="guide4144" />
    <sodipodi:guide
       position="9.0000005,-1"
       orientation="1,0"
       id="guide4146" />
    <sodipodi:guide
       position="13.000001,9"
       orientation="0,1"
       id="guide4148" />
    <sodipodi:guide
       position="17.000001,27"
       orientation="1,0"
       id="guide5335" />
  </sodipodi:namedview>
  <metadata
     id="metadata7">
    <rdf:RDF>
      <cc:Work
         rdf:about="">
        <dc:format>image/svg+xml</dc:format>
        <dc:type
           rdf:resource="http://purl.org/dc/dcmitype/StillImage" />
        <dc:title></dc:title>
      </cc:Work>
    </rdf:RDF>
  </metadata>
  <g
     inkscape:label="Layer 1"
     inkscape:groupmode="layer"
     id="layer1"
     transform="translate(0,-1028.3623)">
    <path
       style="fill:#ffffff;fill-opacity:1;fill-rule:evenodd;stroke:none;stroke-width:1px;stroke-linecap:butt;stroke-linejoin:miter;stroke-opacity:1"
       d="M 4 2 C 2.0000001 2 2 4 2 4 L 2 19.972656 C 2 21.972656 4 21.972656 4 21.972656 L 20 21.972656 C 22 21.972656 22 19.972656 22 19.972656 L 22 4 C 22 2.0000001 20 2 20 2 L 4 2 z M 11.964844 4.0683594 L 11.964844 4.1015625 C 12.935813 4.0921625 13.00916 4.1038125 13.189453 4.2578125 C 13.351083 4.3968125 13.408353 4.6766281 13.296875 4.7988281 L 13.238281 4.8574219 L 13.298828 5.0039062 C 13.382153 5.2068062 13.368786 5.4139438 13.261719 5.5898438 L 13.183594 5.71875 L 13.201172 6.1230469 C 13.217356 6.5421469 13.232295 6.6462907 13.34375 7.1503906 C 13.411416 7.4563906 13.486368 7.739875 13.585938 8.046875 C 13.68544 8.353375 13.807183 8.6801188 13.966797 9.0742188 C 14.307287 9.9158187 14.447011 10.417281 14.556641 11.175781 C 14.578521 11.327381 14.586773 11.453991 14.601562 11.587891 C 14.353167 11.881091 13.920292 12.254625 13.214844 12.265625 C 12.075212 12.280725 11.532975 11.680444 10.410156 10.714844 C 10.055918 10.407844 9.7945168 10.358875 9.5917969 10.421875 C 9.7049256 10.031075 9.8305109 9.6530312 10.068359 9.0820312 C 10.307344 8.5061313 10.465624 8.1161406 10.576172 7.8066406 L 10.578125 7.8066406 C 10.580156 7.7943406 10.578278 7.7949219 10.580078 7.7949219 C 10.688281 7.4887219 10.751781 7.2554531 10.806641 7.0019531 C 10.856441 6.7729531 10.865788 6.6438687 10.867188 6.2304688 L 10.867188 5.7714844 C 10.861558 5.7334844 10.853103 5.7045469 10.845703 5.6855469 L 10.779297 5.5683594 C 10.694377 5.4199594 10.689702 5.3964219 10.701172 5.2324219 C 10.709392 5.1145219 10.731664 5.0199844 10.771484 4.9589844 L 10.830078 4.8554688 L 10.771484 4.7773438 C 10.720364 4.7185438 10.707938 4.6782281 10.710938 4.5488281 C 10.715089 4.3357281 10.791564 4.2228125 10.974609 4.1328125 L 11.107422 4.0800781 L 11.964844 4.0683594 z M 10.865234 12.033203 C 11.029201 12.046303 11.199312 12.079438 11.380859 12.148438 C 12.833244 12.663137 13.194154 13.068641 14.066406 13.056641 C 14.363751 13.053541 14.534038 12.985016 14.662109 12.916016 C 14.656242 13.759916 14.593091 14.306122 14.369141 15.294922 C 14.317431 15.529022 14.307385 15.634775 14.306641 16.171875 C 14.305871 16.663775 14.316369 16.830525 14.355469 17.015625 C 14.425612 17.349725 14.542363 17.7629 14.652344 18.0625 C 14.693434 18.1746 14.683766 18.249406 14.697266 18.316406 C 14.699151 18.324406 14.697819 18.33175 14.699219 18.34375 C 14.711079 18.41535 14.748234 18.479381 14.748047 18.613281 C 14.74759 18.952081 14.703934 19.139838 14.582031 19.335938 C 14.427715 19.584937 14.221031 19.709825 13.744141 19.828125 C 13.206386 19.966825 12.825959 20.001672 12.201172 20.013672 C 11.898534 20.025672 11.606397 20.013672 11.554688 20.013672 C 10.782415 19.936572 10.256075 19.834737 9.9980469 19.710938 C 9.7413858 19.587538 9.5044297 19.3844 9.3925781 19.1875 C 9.2460625 18.9308 9.2629749 18.603106 9.3574219 18.191406 C 9.3630199 18.171406 9.3697731 18.121703 9.3769531 18.095703 C 9.4174564 17.939203 9.4280091 17.817734 9.5019531 17.615234 C 9.691207 17.096734 9.7739866 16.409562 9.7285156 15.726562 C 9.6981523 15.270563 9.6491717 14.954294 9.5273438 14.433594 C 9.3788088 13.800794 9.3057565 13.225669 9.2890625 12.667969 C 9.5872583 12.376469 10.119232 11.971109 10.865234 12.037109 L 10.865234 12.033203 z "
       id="path5333"
       transform="translate(0,1028.3623)" />
    <path
       id="path6512"
       d="m 44.000002,1030.3623 c -2,0 -2,2 -2,2 l 0,15.9727 c 0,2 2,2 2,2 l 16,0 c 2,0 2,-2 2,-2 l 0,-15.9727 c 0,-2 -2,-2 -2,-2 l -16,0 z m 7.964844,2.0684 0,0.033 c 0.970969,-0.01 1.044316,0 1.224609,0.1562 0.16163,0.139 0.2189,0.4188 0.107422,0.541 l -0.05859,0.059 0.06055,0.1465 c 0.08333,0.2029 0.06996,0.41 -0.03711,0.5859 l -0.07813,0.129 0.01758,0.4042 c 0.01618,0.4191 0.03112,0.5233 0.142578,1.0274 0.06767,0.306 0.142618,0.5895 0.242188,0.8965 0.0995,0.3065 0.221245,0.6332 0.380859,1.0273 0.34049,0.8416 0.480214,1.3431 0.589844,2.1016 0.02188,0.1516 0.03013,0.2782 0.04492,0.4121 -0.248395,0.2932 -0.68127,0.6667 -1.386718,0.6777 -1.139632,0.015 -1.681869,-0.5852 -2.804688,-1.5508 -0.354238,-0.307 -0.615639,-0.3559 -0.818359,-0.2929 0.113129,-0.3908 0.238714,-0.7689 0.476562,-1.3399 0.238985,-0.5759 0.397265,-0.9659 0.507813,-1.2754 l 0.002,0 c 0.002,-0.012 1.53e-4,-0.012 0.002,-0.012 0.108203,-0.3062 0.171703,-0.5394 0.226563,-0.7929 0.0498,-0.229 0.05915,-0.3581 0.06055,-0.7715 l 0,-0.459 c -0.0056,-0.038 -0.01409,-0.067 -0.02148,-0.086 l -0.06641,-0.1171 c -0.08492,-0.1484 -0.08959,-0.172 -0.07813,-0.336 0.0082,-0.1179 0.03049,-0.2124 0.07031,-0.2734 l 0.05859,-0.1035 -0.05859,-0.078 c -0.05112,-0.059 -0.06355,-0.099 -0.06055,-0.2285 0.0042,-0.2131 0.08063,-0.326 0.263671,-0.416 l 0.132813,-0.053 0.857422,-0.012 z m -1.09961,7.9648 c 0.163967,0.013 0.334078,0.046 0.515625,0.1152 1.452385,0.5147 1.813295,0.9202 2.685547,0.9082 0.297345,0 0.467632,-0.072 0.595703,-0.1406 -0.0059,0.8439 -0.06902,1.3901 -0.292968,2.3789 -0.05171,0.2341 -0.06176,0.3399 -0.0625,0.877 -7.7e-4,0.4919 0.0097,0.6586 0.04883,0.8437 0.07014,0.3341 0.186894,0.7473 0.296875,1.0469 0.04109,0.1121 0.03142,0.1869 0.04492,0.2539 0.0019,0.01 5.53e-4,0.015 0.002,0.027 0.01186,0.072 0.04902,0.1356 0.04883,0.2695 -4.57e-4,0.3388 -0.04411,0.5265 -0.166016,0.7226 -0.154316,0.249 -0.361,0.3739 -0.83789,0.4922 -0.537755,0.1387 -0.918182,0.1736 -1.542969,0.1856 -0.302638,0.012 -0.594775,0 -0.646484,0 -0.772273,-0.077 -1.298613,-0.179 -1.556641,-0.3028 -0.256661,-0.1234 -0.493617,-0.3265 -0.605469,-0.5234 -0.146515,-0.2567 -0.129603,-0.5844 -0.03516,-0.9961 0.0056,-0.02 0.01235,-0.07 0.01953,-0.096 0.0405,-0.1565 0.05106,-0.278 0.125,-0.4805 0.189254,-0.5185 0.272034,-1.2056 0.226563,-1.8886 -0.03036,-0.456 -0.07934,-0.7723 -0.201172,-1.293 -0.148535,-0.6328 -0.221587,-1.2079 -0.238281,-1.7656 0.298195,-0.2915 0.830169,-0.6969 1.576171,-0.6309 l 0,0 z"
       style="fill:#e61a27;fill-opacity:1;fill-rule:evenodd;stroke:none;stroke-width:1px;stroke-linecap:butt;stroke-linejoin:miter;stroke-opacity:1"
       inkscape:connector-curvature="0" />
  </g>
</svg>
