<?xml version="1.0" encoding="UTF-8" standalone="no"?>
<svg
   xmlns:dc="http://purl.org/dc/elements/1.1/"
   xmlns:cc="http://creativecommons.org/ns#"
   xmlns:rdf="http://www.w3.org/1999/02/22-rdf-syntax-ns#"
   xmlns:svg="http://www.w3.org/2000/svg"
   xmlns="http://www.w3.org/2000/svg"
   xmlns:sodipodi="http://sodipodi.sourceforge.net/DTD/sodipodi-0.dtd"
   xmlns:inkscape="http://www.inkscape.org/namespaces/inkscape"
   fill="#000000"
   height="24"
   viewBox="0 0 24 24"
   width="24"
   id="svg4136"
   version="1.1"
   inkscape:version="0.91 r13725"
   sodipodi:docname="ic_insert_drive_file_black_24px.svg">
  <metadata
     id="metadata4146">
    <rdf:RDF>
      <cc:Work
         rdf:about="">
        <dc:format>image/svg+xml</dc:format>
        <dc:type
           rdf:resource="http://purl.org/dc/dcmitype/StillImage" />
        <dc:title></dc:title>
      </cc:Work>
    </rdf:RDF>
  </metadata>
  <defs
     id="defs4144" />
  <sodipodi:namedview
     pagecolor="#ffffff"
     bordercolor="#666666"
     borderopacity="1"
     objecttolerance="10"
     gridtolerance="10"
     guidetolerance="10"
     inkscape:pageopacity="0"
     inkscape:pageshadow="2"
     inkscape:window-width="1366"
     inkscape:window-height="706"
     id="namedview4142"
     showgrid="true"
     inkscape:zoom="7.9107571"
     inkscape:cx="-6.7316246"
     inkscape:cy="-4.5497734"
     inkscape:window-x="-8"
     inkscape:window-y="-8"
     inkscape:window-maximized="1"
     inkscape:current-layer="svg4136">
    <inkscape:grid
       type="xygrid"
       id="grid4698" />
  </sodipodi:namedview>
  <path
     style="fill:#0ba55d;fill-opacity:1"
     d="M 6 2 C 4.9 2 4.0097656 2.9 4.0097656 4 L 4 20 C 4 21.1 4.8902344 22 5.9902344 22 L 18 22 C 19.1 22 20 21.1 20 20 L 20 8 L 14 2 L 6 2 z M 13 3.5 L 18.5 9 L 13 9 L 13 3.5 z M 6 12 L 18 12 L 18 19 L 6 19 L 6 12 z M 7 13 L 7 15 L 9 15 L 9 13 L 7 13 z M 10 13 L 10 15 L 17 15 L 17 13 L 10 13 z M 7 16 L 7 18 L 9 18 L 9 16 L 7 16 z M 10 16 L 10 18 L 17 18 L 17 16 L 10 16 z "
     id="path4138" />
  <path
     d="M0 0h24v24H0z"
     fill="none"
     id="path4140" />
</svg>
